<svg width="352" height="44" viewBox="0 0 352 44" xmlns="http://www.w3.org/2000/svg" xmlns:xlink="http://www.w3.org/1999/xlink" id="aa703cdf-0ee1-4a07-a879-273e5ee447b8" overflow="hidden"><path d="M60.951 6.4C52.773 6.4 53.206 14.524 53.206 22.106 53.206 29.688 52.827 37.706 61.006 37.706 69.185 37.706 68.751 29.636 68.751 22.106 68.75 14.527 69.129 6.4 60.951 6.4Z" fill="#FFFFFF"/><path d="M1.108 1 1.108 43 79.369 43 79.369 1ZM32.074 38.055 31.416 38.055 29.553 36.082C27.0072 37.785 24.0159 38.6998 20.953 38.712 12.24 38.712 5.72 31.206 5.72 22.384 5.72 13.014 11.747 5.233 20.24 5.233 23.1523 5.15051 25.9888 6.16767 28.185 8.082L30.485 5.836 31.142 5.836 31.362 15.151 30.375 15.151C30.375 15.151 29.334 6 20.567 6 12.457 6 11.909 13.616 11.909 19.808 11.909 29.671 12.896 37.781 21.009 37.781 29.722 37.781 31.146 28.63 31.146 28.63L32.078 28.63ZM47.033 38 33.773 38 33.773 37.123 37.773 37.123 37.773 6.822 33.773 6.822 33.773 5.89 47.033 5.89 47.033 6.822 43.033 6.822 43.033 37.069 47.033 37.069ZM60.896 38.767C52.458 38.767 47.033 29.397 47.033 22.11 47.033 14.823 52.4 5.507 60.9 5.507 69.4 5.507 74.763 14.822 74.763 22.107 74.763 29.392 69.334 38.767 60.9 38.767Z" fill="#FFFFFF"/><path d="M95.156 10.239 110.544 10.239 110.544 12.839 98.078 12.839 98.078 20.41 110.3 20.41 110.3 23.016 98.078 23.016 98.078 31.116 110.544 31.116 110.544 33.722 95.156 33.722Z" fill="#FFFFFF"/><path d="M120.123 26.754 115.017 33.726 111.989 33.726 118.503 24.993 112.341 16.718 115.405 16.718 120.123 23.197 124.842 16.718 127.905 16.718 121.743 24.993 128.292 33.726 125.229 33.726Z" fill="#FFFFFF"/><path d="M136.746 16.3C141.887 16.3 144.915 20.314 144.915 25.42L144.915 26.089 131.147 26.089C131.208 29.3983 133.94 32.0315 137.249 31.9705 137.258 31.9704 137.266 31.9702 137.274 31.97 139.238 31.9751 141.124 31.2029 142.521 29.822L143.789 31.547C141.984 33.3003 139.543 34.2415 137.028 34.153 131.992 34.153 128.365 30.527 128.365 25.209 128.365 20.274 131.886 16.3 136.746 16.3ZM131.146 24.153 142.31 24.153C142.397 21.1101 140.001 18.5726 136.958 18.4855 136.875 18.4832 136.793 18.4826 136.71 18.484 133.084 18.479 131.288 21.542 131.147 24.148Z" fill="#FFFFFF"/><path d="M155.8 16.3C158.243 16.1766 160.584 17.2882 162.033 19.259L160.272 20.878C159.304 19.4449 157.67 18.6077 155.941 18.66 152.313 18.66 150.06 21.441 150.06 25.209 150.06 28.977 152.313 31.793 155.941 31.793 157.666 31.8291 159.293 30.9957 160.272 29.575L162.033 31.195C160.584 33.1651 158.243 34.2762 155.8 34.153 150.729 34.153 147.313 30.28 147.313 25.209 147.311 20.169 150.727 16.3 155.8 16.3Z" fill="#FFFFFF"/><path d="M176.329 31.331C174.793 33.0748 172.597 34.0963 170.273 34.148 166.716 34.148 164.849 32.423 164.849 28.726L164.849 16.718 167.491 16.718 167.491 27.918C167.491 30.911 169.005 31.79 171.291 31.79 173.273 31.745 175.126 30.7993 176.326 29.221L176.326 16.721 178.967 16.721 178.967 33.726 176.326 33.726Z" fill="#FFFFFF"/><path d="M183.9 30.169 183.9 19.041 181.084 19.041 181.084 16.718 183.9 16.718 183.9 12.069 186.542 12.069 186.542 16.718 189.992 16.718 189.992 19.041 186.542 19.041 186.542 29.605C186.542 30.873 187.105 31.788 188.267 31.788 188.936 31.8003 189.582 31.5489 190.067 31.088L190.842 33.06C189.976 33.8364 188.833 34.2302 187.672 34.152 185.17 34.148 183.9 32.705 183.9 30.169Z" fill="#FFFFFF"/><path d="M192.389 12.069C192.412 11.0868 193.227 10.3094 194.21 10.3327 195.159 10.3552 195.923 11.1195 195.946 12.069 195.969 13.0512 195.192 13.8664 194.21 13.8897 193.227 13.913 192.412 13.1356 192.389 12.1534 192.388 12.1252 192.388 12.0971 192.389 12.069ZM192.847 16.718 195.489 16.718 195.489 33.726 192.847 33.726Z" fill="#FFFFFF"/><path d="M197.355 16.718 200.207 16.718 205.877 30.662 211.51 16.718 214.4 16.718 207.32 33.726 204.432 33.726Z" fill="#FFFFFF"/><path d="M223.66 16.3C228.801 16.3 231.829 20.314 231.829 25.42L231.829 26.089 218.061 26.089C218.123 29.3988 220.856 32.0321 224.165 31.9705 224.173 31.9703 224.181 31.9702 224.189 31.97 226.153 31.9749 228.039 31.2027 229.435 29.822L230.703 31.547C228.898 33.3003 226.457 34.2415 223.942 34.153 218.907 34.153 215.279 30.527 215.279 25.209 215.279 20.274 218.8 16.3 223.66 16.3ZM218.06 24.153 229.223 24.153C229.31 21.1101 226.914 18.5726 223.871 18.4855 223.788 18.4832 223.706 18.4826 223.623 18.484 220 18.479 218.2 21.542 218.061 24.148Z" fill="#FFFFFF"/><path d="M242.573 22C242.337 15.5293 247.391 10.0923 253.861 9.85602 254.089 9.8477 254.317 9.84603 254.545 9.851 258.146 9.76157 261.545 11.5141 263.56 14.5L261.1 15.873C259.608 13.7304 257.161 12.4543 254.55 12.457 249.515 12.457 245.607 16.401 245.607 22 245.607 27.563 249.515 31.542 254.55 31.542 257.165 31.5604 259.618 30.2811 261.1 28.127L263.6 29.5C261.562 32.4788 258.158 34.2271 254.55 34.148 248.077 34.2926 242.713 29.1626 242.568 22.6897 242.563 22.4598 242.565 22.2298 242.573 22Z" fill="#FFFFFF"/><path d="M265.358 25.2C265.358 20.27 268.597 16.291 273.774 16.291 278.951 16.291 282.19 20.27 282.19 25.2 282.19 30.13 278.95 34.144 273.774 34.144 268.598 34.144 265.358 30.134 265.358 25.2ZM279.408 25.2C279.408 21.75 277.401 18.651 273.774 18.651 270.147 18.651 268.104 21.751 268.104 25.2 268.104 28.686 270.147 31.784 273.774 31.784 277.401 31.784 279.408 28.69 279.408 25.2Z" fill="#FFFFFF"/><path d="M297.087 31.331C295.55 33.075 293.354 34.0964 291.03 34.148 287.474 34.148 285.607 32.423 285.607 28.726L285.607 16.718 288.249 16.718 288.249 27.918C288.249 30.911 289.763 31.79 292.049 31.79 294.031 31.745 295.884 30.7993 297.084 29.221L297.084 16.721 299.725 16.721 299.725 33.726 297.084 33.726Z" fill="#FFFFFF"/><path d="M315.612 22.6C315.612 19.607 314.098 18.657 311.812 18.657 309.82 18.727 307.967 19.6982 306.776 21.297L306.776 33.726 304.135 33.726 304.135 16.718 306.776 16.718 306.776 19.183C308.309 17.4268 310.5 16.3833 312.83 16.3 316.387 16.3 318.253 18.1 318.253 21.793L318.253 33.726 315.612 33.726Z" fill="#FFFFFF"/><path d="M330.156 16.3C332.599 16.1765 334.941 17.288 336.39 19.259L334.629 20.878C333.661 19.4446 332.026 18.6073 330.297 18.66 326.67 18.66 324.416 21.441 324.416 25.209 324.416 28.977 326.67 31.793 330.297 31.793 332.022 31.8293 333.65 30.9958 334.629 29.575L336.39 31.195C334.941 33.1653 332.599 34.2764 330.156 34.153 325.086 34.153 321.67 30.28 321.67 25.209 321.67 20.169 325.086 16.3 330.156 16.3Z" fill="#FFFFFF"/><path d="M338.75 12.069C338.773 11.0868 339.588 10.3094 340.571 10.3327 341.52 10.3552 342.284 11.1195 342.307 12.069 342.33 13.0512 341.553 13.8664 340.571 13.8897 339.588 13.913 338.773 13.1356 338.75 12.1534 338.749 12.1252 338.749 12.0971 338.75 12.069ZM339.208 16.718 341.849 16.718 341.849 33.726 339.208 33.726Z" fill="#FFFFFF"/><path d="M346.251 10.239 348.892 10.239 348.892 33.726 346.251 33.726Z" fill="#FFFFFF"/></svg>