<svg viewBox="0 0 1395 168" xmlns="http://www.w3.org/2000/svg" xmlns:xlink="http://www.w3.org/1999/xlink" id="af767035-9841-4c3a-9d65-0b4a6039d059" overflow="hidden"><g><path d="M364.1 38.5 423 38.5 423 48.5 375.3 48.5 375.3 77.5 422 77.5 422 87.5 375.2 87.5 375.2 118.5 423 118.5 423 128.5 364.1 128.5 364.1 38.5Z" fill="#FFFFFF"/><path d="M459.6 101.7 440.1 128.4 428.5 128.4 453.4 95 429.8 63.3 441.5 63.3 459.6 88.1 477.7 63.3 489.4 63.3 465.8 95 490.9 128.4 479.2 128.4 459.6 101.7Z" fill="#FFFFFF"/><path d="M523.3 61.7C543 61.7 554.6 77.1 554.6 96.6L554.6 99.2 501.9 99.2C502.7 111.5 511.3 121.7 525.4 121.7 532.9 121.7 540.1 118.8 545.5 113.5L550.4 120.1C543.9 126.6 535.2 130.1 524.5 130.1 505.2 130.1 491.3 116.2 491.3 95.9 491.2 76.9 504.7 61.7 523.3 61.7ZM501.8 91.7 544.5 91.7C544.4 82 537.9 70 523.1 70 509.2 70 502.4 81.7 501.8 91.7Z" fill="#FFFFFF"/><path d="M596.2 61.7C608 61.7 615 66.5 620 73L613.3 79.2C609 73.3 603.5 70.7 596.7 70.7 582.8 70.7 574.2 81.3 574.2 95.8 574.2 110.3 582.8 121 596.7 121 603.4 121 609 118.3 613.3 112.5L620 118.7C615 125.2 608 130 596.1 130 576.7 130 563.6 115.2 563.6 95.8 563.7 76.5 576.8 61.7 596.2 61.7Z" fill="#FFFFFF"/><path d="M674.7 119.2C669.7 124.9 661.2 130 651.5 130 637.9 130 630.7 123.4 630.7 109.2L630.7 63.2 640.8 63.2 640.8 106.1C640.8 117.6 646.6 120.9 655.4 120.9 663 120.7 670.1 117.1 674.7 111.1L674.7 63.3 684.8 63.3 684.8 128.4 674.7 128.4 674.7 119.2Z" fill="#FFFFFF"/><path d="M703.7 114.8 703.7 72.2 692.9 72.2 692.9 63.3 703.7 63.3 703.7 45.5 713.8 45.5 713.8 63.3 727 63.3 727 72.2 713.8 72.2 713.8 112.6C713.8 117.5 716 121 720.4 121 723 121 725.4 120.1 727.3 118.3L730.3 125.8C727.7 128.2 724.1 130 718.2 130 708.6 130 703.7 124.5 703.7 114.8Z" fill="#FFFFFF"/><path d="M736.2 45.5C736.2 41.7 739.3 38.7 743 38.7 746.8 38.7 749.8 41.7 749.8 45.5 749.8 49.3 746.8 52.3 743 52.3 739.3 52.3 736.2 49.3 736.2 45.5 736.2 45.5 736.2 45.5 736.2 45.5ZM737.9 63.3 748 63.3 748 128.4 737.9 128.4 737.9 63.3Z" fill="#FFFFFF"/><path d="M755.2 63.3 766.1 63.3 787.8 116.7 809.4 63.3 820.5 63.3 793.4 128.4 782.3 128.4 755.2 63.3Z" fill="#FFFFFF"/><path d="M855.9 61.7C875.6 61.7 887.2 77.1 887.2 96.6L887.2 99.2 834.5 99.2C835.3 111.5 843.9 121.7 858 121.7 865.5 121.7 872.7 118.8 878.1 113.5L883 120.1C876.5 126.6 867.8 130.1 857.1 130.1 837.8 130.1 823.9 116.2 823.9 95.9 823.8 76.9 837.3 61.7 855.9 61.7ZM834.4 91.7 877.1 91.7C877 82 870.6 70 855.7 70 841.9 70 835 81.7 834.4 91.7L834.4 91.7Z" fill="#FFFFFF"/><path d="M928.2 83.5C928.2 55.9 948.6 37 974 37 990.3 37 1001.4 44.7 1008.5 54.8L999.1 60.1C993.4 51.9 984 47 974 47 954.7 47 939.8 62.1 939.8 83.5 939.8 104.8 954.8 120 974 120 984 120.1 993.4 115.2 999.1 106.9L1008.7 112.2C1001.2 122.4 990.4 130 974.1 130 948.6 130 928.2 111.1 928.2 83.5Z" fill="#FFFFFF"/><path d="M1015.4 95.8C1015.4 76.9 1027.8 61.7 1047.6 61.7 1067.4 61.7 1079.8 76.9 1079.8 95.8 1079.8 114.7 1067.4 130 1047.6 130 1027.8 130 1015.4 114.6 1015.4 95.8ZM1069.2 95.8C1069.2 82.6 1061.5 70.7 1047.6 70.7 1033.7 70.7 1026 82.6 1026 95.8 1026 109.1 1033.8 121 1047.7 121 1061.6 121 1069.2 109.1 1069.2 95.8Z" fill="#FFFFFF"/><path d="M1136.9 119.2C1131.9 124.9 1123.4 130 1113.7 130 1100.1 130 1092.9 123.4 1092.9 109.2L1092.9 63.2 1103 63.2 1103 106.1C1103 117.6 1108.8 120.9 1117.6 120.9 1125.2 120.7 1132.3 117.1 1136.9 111.1L1136.9 63.3 1147 63.3 1147 128.4 1136.9 128.4 1136.9 119.2Z" fill="#FFFFFF"/><path d="M1207.8 85.8C1207.8 74.3 1202 70.7 1193.2 70.7 1185.2 70.7 1177.7 75.6 1173.9 80.8L1173.9 128.4 1163.8 128.4 1163.8 63.3 1173.9 63.3 1173.9 72.7C1178.5 67.3 1187.4 61.6 1197.1 61.6 1210.7 61.6 1217.9 68.5 1217.9 82.6L1217.9 128.3 1207.8 128.3 1207.8 85.8Z" fill="#FFFFFF"/><path d="M1263.4 61.7C1275.3 61.7 1282.3 66.6 1287.3 73L1280.6 79.2C1276.3 73.3 1270.8 70.7 1264 70.7 1250.1 70.7 1241.5 81.3 1241.5 95.8 1241.5 110.3 1250.1 121 1264 121 1270.7 121 1276.3 118.3 1280.6 112.5L1287.3 118.7C1282.3 125.2 1275.3 130 1263.4 130 1244 130 1230.9 115.2 1230.9 95.8 1231 76.5 1244 61.7 1263.4 61.7Z" fill="#FFFFFF"/><path d="M1296.3 45.5C1296.3 41.7 1299.3 38.7 1303.1 38.7 1306.9 38.7 1309.9 41.7 1309.9 45.5 1309.9 49.3 1306.9 52.3 1303.1 52.3 1299.3 52.3 1296.3 49.2 1296.3 45.5ZM1298.1 63.3 1308.2 63.3 1308.2 128.4 1298.1 128.4 1298.1 63.3Z" fill="#FFFFFF"/><path d="M1325 38.5 1335.1 38.5 1335.1 128.4 1325 128.4 1325 38.5Z" fill="#FFFFFF"/></g><rect x="3" y="2.6" width="300" height="161" fill="#EB2027"/><path d="M119.2 144.7 121.7 144.7 121.7 108.6 118.1 108.6C118.1 108.6 112.6 143.7 79.2 143.7 48.1 143.7 44.3 112.6 44.3 74.8 44.3 51.1 46.4 21.9 77.5 21.9 111.1 21.9 115.1 57 115.1 57L118.9 57 118.1 21.3 115.6 21.3 106.8 29.9C106.8 29.9 96.1 19 76.3 19 43.7 19 20.6 48.8 20.6 84.7 20.6 118.5 45.6 147.3 79 147.3 90.7 147.3 102.2 143.7 112 137.2L119.2 144.7ZM128.2 144.5 179 144.5 179 140.9 163.7 140.9 163.7 24.9 179 24.9 179 21.3 128.2 21.3 128.2 24.9 143.5 24.9 143.5 141.1 128.2 141.1 128.2 144.5ZM262.6 83.5C262.6 112.7 264.3 144 232.6 144 200.9 144 202.4 112.9 202.4 83.5 202.4 54.1 200.7 22.6 232.4 22.6 264.1 22.6 262.6 54.1 262.6 83.5M285.3 83.5C285.3 55.6 264.7 19.9 232.2 19.9 199.7 19.9 179 55.6 179 83.5 179 111.4 199.8 147.4 232.1 147.4 264.4 147.4 285.3 111.5 285.3 83.5" fill="#FFFFFF"/></svg>