<svg width="484" height="74.9" viewBox="0 0 484 74.9" xmlns="http://www.w3.org/2000/svg" xmlns:xlink="http://www.w3.org/1999/xlink" id="b09097a6-0714-4097-b621-10b6dbe7b2c6" overflow="hidden"><path d="M44.489 23.331 51.1 27C52.9165 28.0074 55.1249 28.0037 56.938 26.99L63.478 23.334C65.3755 22.275 66.5521 20.273 66.554 18.1L66.554 11.031C66.554 8.85782 65.3789 6.85451 63.482 5.794L56.942 2.138C55.1277 1.12316 52.9174 1.11976 51.1 2.129L44.489 5.8C42.5831 6.85748 41.4006 8.86537 41.4 11.045L41.4 18.085C41.4002 20.265 42.5828 22.2733 44.489 23.331Z" fill="#FFFFFF"/><path d="M63.482 51.565 56.942 47.909C55.1277 46.8942 52.9174 46.8908 51.1 47.9L44.485 51.57C42.5806 52.6285 41.3997 54.6362 41.4 56.815L41.4 63.855C41.4006 66.0346 42.5831 68.0425 44.489 69.1L51.1 72.771C52.9164 73.7788 55.1248 73.7754 56.938 72.762L63.478 69.106C65.3748 68.0455 66.55 66.0422 66.55 63.869L66.55 56.8C66.5501 54.6284 65.3767 52.6262 63.482 51.565Z" fill="#FFFFFF"/><path d="M77.077 28.683 70.451 25.008C68.6406 24.0037 66.4404 24.0037 64.63 25.008L58 28.683C56.0931 29.7406 54.91 31.7494 54.91 33.93L54.91 40.97C54.91 43.1506 56.0931 45.1594 58 46.217L64.626 49.892C66.4364 50.8963 68.6366 50.8963 70.447 49.892L77.073 46.217C78.9799 45.1594 80.163 43.1506 80.163 40.97L80.163 33.93C80.1638 31.7503 78.9824 29.7416 77.077 28.683Z" fill="#FFFFFF"/><path d="M22.249 46.22C24.1459 45.1595 25.321 43.1562 25.321 40.983L25.321 33.917C25.3213 31.7435 24.1462 29.7397 22.249 28.679L15.709 25.024C13.8959 24.0103 11.6875 24.0066 9.871 25.014L3.256 28.683C1.34946 29.7408 0.166829 31.7497 0.167 33.93L0.167 40.97C0.166829 43.1503 1.34946 45.1592 3.256 46.217L9.871 49.886C11.6875 50.8935 13.8959 50.8897 15.709 49.876Z" fill="#FFFFFF"/><path d="M36.14 51.569 29.525 47.9C27.7085 46.8926 25.5001 46.8963 23.687 47.91L17.148 51.566C15.2517 52.6257 14.0763 54.6277 14.075 56.8L14.075 63.867C14.0752 66.0404 15.2508 68.0437 17.148 69.104L23.687 72.76C25.5002 73.7734 27.7086 73.7768 29.525 72.769L36.14 69.1C38.0469 68.0424 39.23 66.0336 39.23 63.853L39.23 56.813C39.2289 54.6335 38.046 52.626 36.14 51.569Z" fill="#FFFFFF"/><path d="M36.157 5.794 29.618 2.138C27.8048 1.12465 25.5964 1.12124 23.78 2.129L17.165 5.8C15.2581 6.85757 14.075 8.86645 14.075 11.047L14.075 18.087C14.0754 20.2672 15.2584 22.2756 17.165 23.333L23.78 27C25.5965 28.0074 27.8049 28.0037 29.618 26.99L36.157 23.334C38.0533 22.2743 39.2287 20.2723 39.23 18.1L39.23 11.031C39.2298 8.85761 38.0542 6.85425 36.157 5.794Z" fill="#FFFFFF"/><path d="M129.024 11.033 139.249 11.033 139.249 59.062 129.024 59.062Z" fill="#FFFFFF"/><path d="M146.951 11.033 165.888 11.033C180.938 11.033 191.379 20.61 191.379 35.083 191.379 49.556 180.938 59.062 165.888 59.062L146.951 59.062ZM165.888 50.061C175.388 50.061 180.938 43.22 180.938 35.083 180.938 26.583 175.753 20.034 165.888 20.034L157.175 20.034 157.175 50.061Z" fill="#FFFFFF"/><path d="M194.542 35.083C194.542 20.322 205.702 10.241 219.742 10.241 230.687 10.241 236.808 16.002 240.192 21.979L231.408 26.299C229.117 21.9857 224.626 19.2963 219.742 19.314 211.39 19.314 205.052 26.014 205.052 35.083 205.052 44.152 211.39 50.853 219.742 50.853 224.634 50.9009 229.14 48.2029 231.408 43.868L240.192 48.116C236.736 54.093 230.687 59.926 219.742 59.926 205.7 59.926 194.542 49.845 194.542 35.083Z" fill="#FFFFFF"/><path d="M262.005 11.033 267.981 11.033 267.981 59.062 262.005 59.062Z" fill="#FFFFFF"/><path d="M300.671 36.308C300.671 30.187 297.571 28.243 292.894 28.243 288.819 28.3857 285.029 30.3725 282.594 33.643L282.594 59.062 277.194 59.062 277.194 24.283 282.594 24.283 282.594 29.323C285.729 25.7271 290.213 23.5895 294.98 23.418 302.252 23.418 306.068 27.091 306.068 34.651L306.068 59.062 300.668 59.062Z" fill="#FFFFFF"/><path d="M314.852 50.564C317.822 53.7252 321.963 55.5227 326.3 55.533 331.629 55.533 334.509 53.157 334.509 49.772 334.509 45.956 330.261 44.732 325.581 43.58 319.675 42.212 312.981 40.628 312.981 33.427 312.981 28.027 317.661 23.418 325.942 23.418 330.746 23.2677 335.403 25.0891 338.831 28.459L336.31 32.2C333.655 29.301 329.872 27.6984 325.942 27.808 321.189 27.808 318.242 29.968 318.242 33.064 318.242 36.449 322.203 37.529 326.742 38.608 332.791 39.976 339.775 41.708 339.775 49.408 339.775 55.241 335.096 59.922 326.095 59.922 320.406 59.922 315.582 58.193 312.053 54.449Z" fill="#FFFFFF"/><path d="M345.812 15.066C345.779 13.0576 347.38 11.4025 349.388 11.3692 351.397 11.3359 353.052 12.937 353.085 14.9454 353.086 14.9856 353.086 15.0258 353.085 15.066 353.052 17.0744 351.397 18.6755 349.388 18.6422 347.427 18.6097 345.845 17.0274 345.812 15.066ZM346.749 24.283 352.149 24.283 352.149 59.062 346.749 59.062Z" fill="#FFFFFF"/><path d="M363.811 63.958C366.692 67.414 370.148 68.71 375.116 68.71 380.878 68.71 386.278 65.902 386.278 58.27L386.278 53.3C383.606 57.114 379.268 59.4164 374.612 59.492 365.54 59.492 359.132 52.724 359.132 41.492 359.132 30.331 365.467 23.418 374.612 23.418 379.26 23.4576 383.604 25.7367 386.278 29.539L386.278 24.283 391.678 24.283 391.678 58.053C391.678 69.574 383.613 73.175 375.116 73.175 369.216 73.175 365.179 72.022 361.075 67.99ZM386.278 33.858C383.939 30.4125 380.073 28.3181 375.909 28.242 368.924 28.242 364.748 33.786 364.748 41.491 364.748 49.123 368.924 54.74 375.909 54.74 380.083 54.6374 383.948 52.5171 386.278 49.052Z" fill="#FFFFFF"/><path d="M424.22 36.164C424.22 30.043 421.052 28.243 416.372 28.243 412.306 28.4197 408.53 30.3993 406.072 33.643L406.072 59.062 400.672 59.062 400.672 11.033 406.072 11.033 406.072 29.323C409.226 25.7123 413.737 23.5737 418.529 23.418 425.802 23.418 429.619 26.947 429.619 34.507L429.619 59.062 424.219 59.062Z" fill="#FFFFFF"/><path d="M439.7 51.789 439.7 29.035 433.94 29.035 433.94 24.283 439.7 24.283 439.7 14.778 445.1 14.778 445.1 24.283 452.157 24.283 452.157 29.035 445.1 29.035 445.1 50.635C445.1 53.227 446.253 55.099 448.629 55.099 449.994 55.1188 451.313 54.6017 452.301 53.659L453.885 57.691C452.114 59.2779 449.778 60.083 447.405 59.924 442.29 59.926 439.7 56.973 439.7 51.789Z" fill="#FFFFFF"/><path d="M457.769 50.564C460.738 53.7257 464.88 55.5233 469.217 55.533 474.547 55.533 477.426 53.157 477.426 49.772 477.426 45.956 473.178 44.732 468.499 43.58 462.593 42.212 455.899 40.628 455.899 33.427 455.899 28.027 460.579 23.418 468.86 23.418 473.664 23.2677 478.321 25.0891 481.749 28.459L479.229 32.203C476.574 29.3039 472.79 27.7012 468.86 27.811 464.108 27.811 461.16 29.971 461.16 33.067 461.16 36.452 465.121 37.532 469.66 38.611 475.708 39.979 482.693 41.711 482.693 49.411 482.693 55.244 478.013 59.925 469.013 59.925 463.323 59.925 458.499 58.196 454.971 54.452Z" fill="#FFFFFF"/></svg>